# xmcd
#
# Track frame offsets:
#	150
#	15658
#	29329
#	44219
#	57879
#	70401
#	85370
#	98547
#	112879
#	127695
#	142394
#	151868
#	161352
#	177510
#	188136
#	201166
#	212423
#	226030
#	238807
#	251105
#	263292
#	276134
#	289065
#	301832
#	313412
#
# Disc length: 4332 seconds
#
# Revision: 0
# Processed by: cddbd v1.5.2PL0 Copyright (c) Steve Scherf et al.
# Submitted via: dBpowerAMP V4.0
#
DISCID=5f10ea19
DTITLE=Muddy Waters - The Muddy Waters Story-The Music Disc 1
DYEAR=1900
DGENRE=
TTITLE0=Country Blues
TTITLE1=I Be's Troubled
TTITLE2=Ramblin' Kid Blues
TTITLE3=Rosalie
TTITLE4=Joe Turner Blues
TTITLE5=Pearlie May Blues
TTITLE6=Take A walk With Me
TTITLE7=Burr Clover Blues
TTITLE8=I Be Bound To Write To You
TTITLE9=You Gonna Miss Me When I'm Gone
TTITLE10=You Got To Take Sick And Die Some Of These Days
TTITLE11=Why Don't You Live So God Can Use You
TTITLE12=Country Blue No 2
TTITLE13=Mean Red Spider
TTITLE14=I'm Gonna Cut Your Head
TTITLE15=Atomic Bomb Blues
TTITLE16=Tomorrow Will Be Too Late
TTITLE17=Jitterbug Blues
TTITLE18=Hard Day Blues
TTITLE19=Buryin' Ground Blues
TTITLE20=Come To Me Baby
TTITLE21=You Can't Make The Grade
TTITLE22=Johnson Machine Gun
TTITLE23=Fly Right Little Girl
TTITLE24=Gypsy Woman
EXTD=
EXTT0=
EXTT1=
EXTT2=
EXTT3=
EXTT4=
EXTT5=
EXTT6=
EXTT7=
EXTT8=
EXTT9=
EXTT10=
EXTT11=
EXTT12=
EXTT13=
EXTT14=
EXTT15=
EXTT16=
EXTT17=
EXTT18=
EXTT19=
EXTT20=
EXTT21=
EXTT22=
EXTT23=
EXTT24=
PLAYORDER=
